<?xml version="1.0" encoding="UTF-8"?>
<svg width="54px" height="54px" viewBox="0 0 54 54" version="1.1" xmlns="http://www.w3.org/2000/svg" xmlns:xlink="http://www.w3.org/1999/xlink">
    <!-- Generator: Sketch 54.1 (76490) - https://sketchapp.com -->
    <title>icon_video</title>
    <desc>Created with Sketch.</desc>
    <defs>
        <linearGradient x1="100%" y1="50%" x2="0%" y2="50%" id="linearGradient-1">
            <stop stop-color="#48D489" stop-opacity="0.989264642" offset="0%"></stop>
            <stop stop-color="#3CBDA7" offset="100%"></stop>
        </linearGradient>
    </defs>
    <g id="Page-1" stroke="none" stroke-width="1" fill="none" fill-rule="evenodd">
        <g id="首页" transform="translate(-505.000000, -961.000000)">
            <g id="icon_video" transform="translate(505.000000, 961.000000)">
                <circle id="椭圆形" fill="url(#linearGradient-1)" cx="27" cy="27" r="27"></circle>
                <path d="M31.9582312,23.7772359 C31.9582312,23.852766 31.8787862,23.9847924 31.7210101,24.1736334 C31.5621201,24.3624745 31.3920263,24.5848632 31.2107606,24.841659 C31.0294948,25.0982002 30.860515,25.3773718 30.701625,25.6792055 C30.542735,25.9810392 30.464404,26.2904483 30.464404,26.6074008 C30.464404,26.9246397 30.542735,27.2301019 30.701625,27.5244241 C30.860515,27.8190008 31.0294948,28.0867139 31.2107606,28.3281364 C31.3920263,28.5698453 31.5621201,28.7698583 31.7210101,28.9284618 C31.8787862,29.0865243 31.9582312,29.1886315 31.9582312,29.2339559 L31.9582312,31.6112269 C31.9582312,31.867768 31.8642403,32.158398 31.6751128,32.4829258 C31.4871312,32.8074217 31.2532522,33.1129158 30.9735077,33.3999491 C30.6948773,33.6864094 30.3849271,33.9247445 30.0447395,34.112758 C29.7056978,34.3018536 29.3845439,34.3958763 29.0824237,34.3958763 L17.8299102,34.3958763 C17.4225954,34.3958763 17.0488601,34.3242612 16.7098183,34.181031 C16.3696307,34.0378008 16.0719984,33.8375014 15.8146296,33.5812467 C15.5583749,33.3244509 15.3580755,33.0228717 15.2148453,32.6754271 C15.0716151,32.328269 15,31.9508734 15,31.5435586 L15,21.7848722 C15,21.4830385 15.0682731,21.1697145 15.2036415,20.8452186 C15.3401558,20.5207226 15.5315113,20.222772 15.7810501,19.9508575 C16.0305889,19.6792294 16.3248792,19.4528938 16.663921,19.2716281 C17.0041086,19.090617 17.3767299,19 17.7851587,19 L29.0376722,19 C29.444987,19 29.8265522,19.0716151 30.1812857,19.2151317 C30.5360191,19.3583619 30.8448552,19.5547464 31.1089398,19.8037123 C31.3730245,20.0529647 31.5811538,20.3508835 31.7322139,20.6980734 C31.883274,21.0452634 31.958263,21.4150519 31.958263,21.8075344 L31.958263,23.7772359 L31.9582312,23.7772359 L31.9582312,23.7772359 Z M39,21.6489309 L39,31.9961978 C39,32.328269 38.9127251,32.6225593 38.7392892,32.8790686 C38.5658534,33.1358644 38.3051108,33.2640077 37.9582391,33.2640077 C37.8373847,33.2640077 37.6829825,33.2186833 37.493855,33.1280664 C37.2991054,33.0342276 37.1103778,32.9283726 36.9287642,32.8111139 C36.7396685,32.6905459 36.5617448,32.5696914 36.3961389,32.448837 C36.230533,32.328269 36.1096785,32.2300767 36.0335755,32.1548332 C35.837764,31.9886543 35.5389858,31.7016528 35.1395009,31.294338 C34.738902,30.8867368 34.336075,30.4262994 33.9276462,29.9132171 C33.5203314,29.3998801 33.1622559,28.8717108 32.8523058,28.3281682 C32.5434697,27.784912 32.3890357,27.286662 32.3890357,26.8337681 C32.3890357,26.3811289 32.5546417,25.8641634 32.8869993,25.2831263 C33.219357,24.7020892 33.6188101,24.1322558 34.0865681,23.5735945 C34.554326,23.0149331 35.0455419,22.4979676 35.5580195,22.0226662 C36.0716429,21.5471101 36.5013335,21.1884617 36.8493192,20.9473258 C36.9847195,20.856677 37.1693591,20.7473128 37.4032062,20.6189149 C37.6370534,20.490517 37.8452146,20.4264453 38.0264803,20.4264453 C38.4337952,20.4264453 38.6978798,20.5397563 38.8187342,20.76606 C38.9395887,20.9923637 39,21.2718535 39,21.6036065 L39,21.6489309 L39,21.6489309 Z" id="形状" fill="#FFFFFF" fill-rule="nonzero"></path>
            </g>
        </g>
    </g>
</svg>