<?xml version="1.0" encoding="UTF-8"?>
<svg width="54px" height="54px" viewBox="0 0 54 54" version="1.1" xmlns="http://www.w3.org/2000/svg" xmlns:xlink="http://www.w3.org/1999/xlink">
    <!-- Generator: Sketch 54.1 (76490) - https://sketchapp.com -->
    <title>icon_audio</title>
    <desc>Created with Sketch.</desc>
    <defs>
        <linearGradient x1="100%" y1="50%" x2="0%" y2="50%" id="linearGradient-1">
            <stop stop-color="#544BF4" offset="0%"></stop>
            <stop stop-color="#6883FF" offset="100%"></stop>
        </linearGradient>
    </defs>
    <g id="Page-1" stroke="none" stroke-width="1" fill="none" fill-rule="evenodd">
        <g id="首页" transform="translate(-582.000000, -961.000000)">
            <g id="icon_audio" transform="translate(582.000000, 961.000000)">
                <circle id="椭圆形" fill="url(#linearGradient-1)" cx="27" cy="27" r="27"></circle>
                <path d="M28.5688585,36.9311807 L28.5688585,40.194595 L26.2120355,40.194595 L26.2120355,37.02074 C21.0615916,36.6247937 17,32.3950821 17,27.6201587 C17,26.96934 17.5275928,26.4417472 18.1784115,26.4417472 C18.8292302,26.4417472 19.356823,26.96934 19.356823,27.6201587 C19.356823,31.3282269 22.7757876,34.6937701 27.0007856,34.6937701 C31.2257836,34.6937701 34.643177,31.3266556 34.643177,27.6201587 C34.6431125,27.1991098 34.8677024,26.8100171 35.2323307,26.599474 C35.5969589,26.388931 36.0462181,26.388931 36.4108463,26.599474 C36.7754746,26.8100171 37.0000644,27.1991098 37,27.6201587 C37,32.1515437 33.3437819,36.1927095 28.5688585,36.9311807 L28.5688585,36.9311807 Z M27.0432084,13 C29.6464832,13 31.7568544,15.1103712 31.7568544,17.713646 L31.7568544,27.140938 C31.7568545,28.8249615 30.8584386,30.3810635 29.4000314,31.2230752 C27.9416243,32.065087 26.1447926,32.065087 24.6863854,31.2230752 C23.2279782,30.3810635 22.3295624,28.8249615 22.3295624,27.140938 L22.3295624,17.713646 C22.3295624,15.1103712 24.4399336,13 27.0432084,13 Z" id="形状" fill="#FFFFFF" fill-rule="nonzero"></path>
            </g>
        </g>
    </g>
</svg>